<?xml version="1.0" encoding="utf-8"?>
<!-- Generator: Adobe Illustrator 25.4.1, SVG Export Plug-In . SVG Version: 6.00 Build 0)  -->
<svg version="1.1" id="레이어_1" xmlns="http://www.w3.org/2000/svg" xmlns:xlink="http://www.w3.org/1999/xlink" x="0px"
	 y="0px" viewBox="0 0 24 24" style="enable-background:new 0 0 24 24;" xml:space="preserve">
<style type="text/css">
	.st0{fill:none;}
	.st1{fill:none;stroke:#000000;stroke-width:1.2;stroke-miterlimit:10;}
</style>
<path class="st0" d="M0,0h24v24H0V0z"/>
<g>
	<path class="st1" d="M14.6,5.8H13c-1.8,0-3,1.2-3,3v1.4H8.4c-0.1,0-0.3,0.1-0.3,0.3v2c0,0.1,0.1,0.3,0.3,0.3H10v5.1
		c0,0.1,0.1,0.3,0.3,0.3h2.1c0.1,0,0.3-0.1,0.3-0.3v-5.1h1.9c0.1,0,0.3-0.1,0.3-0.3v-2c0-0.1,0-0.1-0.1-0.2c0,0-0.1-0.1-0.2-0.1
		h-1.9V9.1c0-0.6,0.1-0.9,0.9-0.9h1.1c0.1,0,0.3-0.1,0.3-0.3V6.1C14.8,5.9,14.7,5.8,14.6,5.8z"/>
</g>
</svg>
