<?xml version="1.0" encoding="utf-8"?>
<!-- Generator: Adobe Illustrator 25.4.1, SVG Export Plug-In . SVG Version: 6.00 Build 0)  -->
<svg version="1.1" id="레이어_1" xmlns="http://www.w3.org/2000/svg" xmlns:xlink="http://www.w3.org/1999/xlink" x="0px"
	 y="0px" viewBox="0 0 24 24" style="enable-background:new 0 0 24 24;" xml:space="preserve">
<style type="text/css">
	.st0{fill:none;}
</style>
<path class="st0" d="M0,0h24v24H0V0z"/>
<path d="M12,6.3c1.8,0,2.1,0,2.8,0c1.9,0.1,2.7,1,2.8,2.8c0,0.7,0,0.9,0,2.8c0,1.8,0,2.1,0,2.8c-0.1,1.9-1,2.7-2.8,2.8
	c-0.7,0-0.9,0-2.8,0c-1.8,0-2.1,0-2.8,0c-1.9-0.1-2.7-1-2.8-2.8c0-0.7,0-0.9,0-2.8c0-1.8,0-2.1,0-2.8c0.1-1.9,1-2.7,2.8-2.8
	C9.9,6.3,10.2,6.3,12,6.3z M12,5.1c-1.9,0-2.1,0-2.8,0c-2.5,0.1-3.9,1.5-4,4c0,0.7,0,1,0,2.8s0,2.1,0,2.8c0.1,2.5,1.5,3.9,4,4
	c0.7,0,1,0,2.8,0s2.1,0,2.8,0c2.5-0.1,3.9-1.5,4-4c0-0.7,0-1,0-2.8s0-2.1,0-2.8c-0.1-2.5-1.5-3.9-4-4C14.1,5.1,13.9,5.1,12,5.1z
	 M12,8.5c-2,0-3.5,1.6-3.5,3.5s1.6,3.5,3.5,3.5s3.5-1.6,3.5-3.5C15.5,10,14,8.5,12,8.5z M12,14.3c-1.3,0-2.3-1-2.3-2.3
	c0-1.3,1-2.3,2.3-2.3s2.3,1,2.3,2.3C14.3,13.3,13.3,14.3,12,14.3z M15.7,7.5c-0.5,0-0.8,0.4-0.8,0.8c0,0.5,0.4,0.8,0.8,0.8
	c0.5,0,0.8-0.4,0.8-0.8C16.5,7.9,16.1,7.5,15.7,7.5z"/>
</svg>
